<svg width="72" height="72" viewBox="0 0 72 72" fill="none" xmlns="http://www.w3.org/2000/svg">
<g clip-path="url(#clip0_95_348)">
<path d="M64.5426 11.3302L36.4181 0.0801725C36.1496 -0.0263987 35.8506 -0.0263987 35.5821 0.0801725L7.45709 11.3302C7.24843 11.4139 7.06961 11.5581 6.94361 11.7443C6.81762 11.9305 6.75023 12.1502 6.75011 12.375V32.3448C6.72943 41.1623 9.52131 49.7566 14.72 56.8786C19.9186 64.0005 27.2531 69.279 35.6573 71.9467C35.8803 72.0177 36.1199 72.0177 36.3429 71.9467C44.7472 69.279 52.0816 64.0005 57.2803 56.8786C62.4789 49.7566 65.2708 41.1623 65.2501 32.3448V12.375C65.25 12.1501 65.1825 11.9304 65.0564 11.7442C64.9303 11.558 64.7514 11.4138 64.5426 11.3302ZM63.0001 32.3448C63.0196 40.6235 60.4178 48.6959 55.5675 55.4049C50.7172 62.114 43.8675 67.1154 36.0001 69.6923C28.1327 67.1153 21.2831 62.1139 16.4329 55.4048C11.5826 48.6958 8.98074 40.6235 9.00011 32.3448V13.1369L36.0001 2.33677L63.0001 13.1369V32.3448Z" fill="#3BA4D1"/>
<path d="M35.582 4.92684L11.957 14.3767C11.7483 14.4604 11.5694 14.6046 11.4434 14.7908C11.3174 14.977 11.25 15.1967 11.25 15.4215V32.3449C11.2634 39.9453 13.6062 47.359 17.9627 53.5871C22.3192 59.8151 28.4799 64.5581 35.6149 67.177C35.8636 67.2679 36.1364 67.2679 36.3851 67.177C43.52 64.558 49.6807 59.8149 54.0372 53.587C58.3936 47.359 60.7365 39.9453 60.75 32.3449V15.4215C60.75 15.1966 60.6825 14.9769 60.5564 14.7907C60.4303 14.6044 60.2513 14.4603 60.0425 14.3767L36.418 4.92684C36.1495 4.82028 35.8505 4.82028 35.582 4.92684ZM58.5 16.1834V32.3449C58.4875 39.414 56.3299 46.3128 52.3124 52.1293C48.295 57.9458 42.6068 62.4061 36 64.9204C29.3932 62.406 23.7052 57.9457 19.6877 52.1292C15.6702 46.3127 13.5126 39.4139 13.5 32.3449V16.1834L36 7.18344L58.5 16.1834Z" fill="#3BA4D1"/>
<path d="M28.9204 31.8296C28.816 31.7251 28.692 31.6422 28.5555 31.5857C28.419 31.5291 28.2727 31.5 28.125 31.5C27.9773 31.5 27.831 31.5291 27.6945 31.5857C27.558 31.6422 27.434 31.7251 27.3296 31.8296L23.9546 35.2046C23.8501 35.309 23.7672 35.433 23.7107 35.5695C23.6541 35.706 23.625 35.8523 23.625 36C23.625 36.1477 23.6541 36.294 23.7107 36.4305C23.7672 36.567 23.8501 36.691 23.9546 36.7954L31.8296 44.6704C31.934 44.7749 32.058 44.8578 32.1945 44.9143C32.331 44.9709 32.4773 45 32.625 45C32.7727 45 32.919 44.9709 33.0555 44.9143C33.192 44.8578 33.316 44.7749 33.4204 44.6704L48.0454 30.0454C48.1499 29.941 48.2328 29.817 48.2893 29.6805C48.3459 29.544 48.375 29.3977 48.375 29.25C48.375 29.1023 48.3459 28.956 48.2893 28.8195C48.2328 28.683 48.1499 28.559 48.0454 28.4546L44.6704 25.0796C44.566 24.9751 44.442 24.8922 44.3055 24.8357C44.169 24.7791 44.0227 24.75 43.875 24.75C43.7273 24.75 43.581 24.7791 43.4445 24.8357C43.308 24.8922 43.184 24.9751 43.0796 25.0796L32.625 35.5342L28.9204 31.8296ZM43.875 27.4658L45.6592 29.25L32.625 42.2842L26.3409 36L28.125 34.2158L31.8297 37.9204C31.9341 38.0249 32.0581 38.1078 32.1946 38.1643C32.3311 38.2209 32.4773 38.25 32.6251 38.25C32.7728 38.25 32.9191 38.2209 33.0556 38.1643C33.192 38.1078 33.316 38.0249 33.4205 37.9204L43.875 27.4658Z" fill="#3BA4D1"/>
<path d="M23.5448 15.8044C23.4336 15.5275 23.2172 15.3061 22.943 15.1886C22.6687 15.0711 22.3591 15.0672 22.082 15.1776L16.457 17.4276C16.2483 17.5113 16.0695 17.6556 15.9435 17.8418C15.8175 18.028 15.7501 18.2476 15.75 18.4724V24.4688C15.75 24.7671 15.8685 25.0533 16.0795 25.2643C16.2905 25.4752 16.5766 25.5938 16.875 25.5938C17.1734 25.5938 17.4595 25.4752 17.6705 25.2643C17.8815 25.0533 18 24.7671 18 24.4688V19.2343L22.918 17.2672C23.1951 17.1563 23.4167 16.9399 23.5342 16.6656C23.6518 16.3912 23.6556 16.0815 23.5448 15.8044Z" fill="#3BA4D1"/>
<path d="M46.4086 52.5102C43.4187 55.8716 39.7116 58.5181 35.5612 60.2539C35.4252 60.3116 35.3018 60.3955 35.1982 60.5008C35.0946 60.6061 35.0127 60.7308 34.9572 60.8677C34.9018 61.0047 34.8739 61.1512 34.875 61.299C34.8762 61.4467 34.9065 61.5928 34.9641 61.7289C35.0218 61.8649 35.1056 61.9883 35.211 62.0919C35.3163 62.1956 35.441 62.2774 35.5779 62.3329C35.7149 62.3883 35.8614 62.4163 36.0092 62.4151C36.1569 62.4139 36.303 62.3836 36.4391 62.326C40.8975 60.4598 44.8797 57.6159 48.0917 54.0043C48.2898 53.7812 48.3912 53.4884 48.3735 53.1905C48.3558 52.8925 48.2204 52.6139 47.9972 52.4157C47.774 52.2176 47.4813 52.1162 47.1833 52.1339C46.8854 52.1517 46.6067 52.287 46.4086 52.5102Z" fill="#3BA4D1"/>
</g>
<defs>
<clipPath id="clip0_95_348">
<rect width="72" height="72" fill="white"/>
</clipPath>
</defs>
</svg>
