<svg width="72" height="72" viewBox="0 0 72 72" fill="none" xmlns="http://www.w3.org/2000/svg">
<g clip-path="url(#clip0_95_337)">
<path d="M36.0478 46.3837C30.2576 46.3837 25.5469 41.767 25.5469 36.0912C25.5469 30.4154 30.2576 25.7981 36.0478 25.7981C36.8689 25.7981 37.8693 26.0002 37.8031 27.0511C37.7398 28.0545 36.8306 28.1207 36.0478 28.1207C31.538 28.1207 27.8695 31.6963 27.8695 36.0912C27.8695 40.4861 31.538 44.0611 36.0478 44.0611C40.5577 44.0611 44.2262 40.4855 44.2262 36.0912C44.2262 34.8068 43.9231 33.5816 43.3251 32.4488C43.0255 31.8821 43.2426 31.1795 43.8093 30.8799C44.376 30.5803 45.0798 30.7963 45.3788 31.3647C46.1441 32.814 46.5488 34.4485 46.5488 36.0912C46.5488 41.767 41.8386 46.3837 36.0478 46.3837Z" fill="#3BA4D1"/>
<path d="M41.5858 29.8998C41.3506 29.8998 41.1132 29.8284 40.9076 29.6803C40.6004 29.4591 40.2741 29.2564 39.9379 29.0782C39.3706 28.778 39.1546 28.076 39.4542 27.5087C39.7539 26.9426 40.4564 26.7248 41.0237 27.0256C41.4546 27.2538 41.8726 27.5128 42.2663 27.7967C43.1582 28.4395 42.6867 29.8998 41.5858 29.8998Z" fill="#3BA4D1"/>
<path d="M67.6299 17.7707L67.5887 12.7289C67.5834 12.0908 67.0643 11.5775 66.4274 11.5775C66.4239 11.5775 66.421 11.5775 66.4175 11.5775C65.7765 11.5828 65.2603 12.1071 65.2655 12.7481L65.2777 14.2781C58.3059 5.97604 47.1383 0.580688 36.4266 0.580688C25.3502 0.580688 15.0972 5.54172 8.30073 14.1904C7.90473 14.6944 7.9924 15.4243 8.4964 15.8203C9.00098 16.2169 9.73086 16.1292 10.1274 15.6246C16.4809 7.53972 26.0667 2.90327 36.4266 2.90327C46.8399 2.90327 57.7148 8.34159 64.189 16.6198H61.0018C60.3608 16.6198 59.8405 17.1395 59.8405 17.7811C59.8405 18.4222 60.3608 18.9424 61.0018 18.9424H66.4686C66.8431 18.9419 67.6299 18.5244 67.6299 17.7707Z" fill="#3BA4D1"/>
<path d="M69.6407 23.0899C69.4085 22.493 68.7349 22.1969 68.1374 22.4297C67.5399 22.662 67.2438 23.3355 67.4766 23.9336C68.937 27.6805 69.6773 31.6353 69.6773 35.6882C69.6773 48.4223 60.8068 60.6501 48.1673 65.9148L49.0325 64.5909C49.3832 64.0544 49.2322 63.3344 48.6957 62.9843C48.1586 62.6342 47.4392 62.784 47.0879 63.3211L44.3182 67.5586C43.9326 68.1468 44.1806 68.9731 44.8216 69.2564L49.4877 71.3142C50.8574 71.9152 51.7952 69.7941 50.4248 69.1891L48.4396 68.314C54.5335 65.8945 60.0577 61.8706 64.2152 56.7731C69.3086 50.5277 71.9999 43.2371 71.9999 35.6882C71.9999 31.3455 71.2061 27.1074 69.6407 23.0899C71.2061 27.1074 69.4079 22.4924 69.6407 23.0899Z" fill="#3BA4D1"/>
<path d="M37.8046 68.4453C37.3476 68.4633 36.8883 68.4726 36.4267 68.4726C18.0923 68.4726 3.17607 53.766 3.17607 35.6882C3.17607 32.49 4.52026 28.49 5.80116 25.1135L6.82542 27.3798C7.44381 28.7466 9.55794 27.7857 8.94245 26.424L6.77723 21.6337C6.51071 21.0449 5.77736 20.7842 5.19903 21.0734L0.641551 23.3559C0.0678733 23.6427 -0.163804 24.3407 0.123035 24.9138C0.410454 25.4875 1.10955 25.7203 1.68149 25.4317L3.55174 24.4951C2.22671 28.008 0.854067 32.1724 0.854067 35.6877C0.854067 55.0452 16.8119 70.794 36.4273 70.794C36.9197 70.794 37.4097 70.7836 37.8969 70.7644C38.5379 70.7395 39.0367 70.1989 39.0112 69.5584C38.9856 68.918 38.4439 68.4209 37.8046 68.4453C38.4439 68.4209 37.3482 68.4633 37.8046 68.4453Z" fill="#3BA4D1"/>
<path d="M37.8588 59.22C36.719 59.22 33.3402 59.2334 32.8141 59.0093C31.9083 58.6237 31.1697 57.6407 31.1697 56.6327V54.3194C29.4197 53.8607 27.7294 53.1465 26.1988 52.2192L24.573 53.8415C23.5523 54.8495 21.8121 54.6805 20.8325 53.7434C20.3541 53.2853 18.4914 51.3831 18.0605 50.8825C17.1419 49.8147 17.1623 48.1599 18.1662 47.1577L19.8024 45.5255C18.8455 43.8951 18.1476 42.1816 17.7504 40.4867H15.4604C14.0326 40.4867 12.8527 39.3138 12.7743 37.8987C12.7377 37.2374 12.7552 34.5693 12.7743 33.9051C12.8138 32.5365 13.9211 31.2219 15.3652 31.2219H17.6866C18.1459 29.4771 18.8606 27.7915 19.7897 26.2661L18.1668 24.6467C17.1512 23.6311 17.3272 21.8834 18.2649 20.9079C18.7242 20.4306 20.631 18.5714 21.1321 18.1423C22.2005 17.2278 23.8554 17.2481 24.8587 18.248L26.4973 19.8831C28.1318 18.9273 29.8505 18.2306 31.5506 17.8334V15.4568C31.5506 14.0284 32.7282 12.8526 34.1415 12.7737C34.804 12.7371 37.4784 12.7527 38.1444 12.7737C39.592 12.8189 40.7353 14.0017 40.7353 15.4568V17.7701C42.4853 18.2288 44.1756 18.9424 45.7062 19.8703L47.332 18.248C48.3504 17.2365 50.0953 17.4113 51.0725 18.3467C51.551 18.8048 53.4137 20.7064 53.8439 21.2069C54.7625 22.2753 54.7422 23.9296 53.7377 24.9318L52.102 26.564C53.0589 28.1938 53.7563 29.9067 54.154 31.6022H56.4441C57.8388 31.6022 59.0738 32.634 59.2166 34.0462C59.2857 34.7296 59.2457 37.501 59.2259 38.1844C59.1864 39.5536 58.0803 40.867 56.6351 40.867H54.3137C53.8544 42.6118 53.1396 44.2969 52.2106 45.8234L53.8335 47.4422C54.8496 48.4584 54.6731 50.2061 53.7353 51.1816C53.2761 51.6589 51.3698 53.5175 50.8681 53.9466C49.7992 54.8617 48.1455 54.8426 47.1415 53.8415L45.503 52.2064C43.8684 53.1616 42.1503 53.8589 40.4496 54.2561V56.5375C40.4496 57.9066 39.2732 59.22 37.8588 59.22ZM33.4917 56.5404C33.5167 56.6582 33.5997 56.8975 33.8552 56.8975H37.767C37.8861 56.8725 38.127 56.79 38.127 56.5369V53.3038C38.127 52.7366 38.5375 52.2517 39.0979 52.1588C41.0773 51.8296 43.1328 51.0004 45.0425 49.7619C45.5018 49.464 46.1074 49.5279 46.4947 49.914L48.7819 52.1966C48.9659 52.3806 49.2127 52.272 49.3288 52.2035L52.1113 49.5198C52.2774 49.3543 52.1769 49.1191 52.1084 49.0018L49.9054 46.8035C49.5088 46.4081 49.4513 45.7862 49.7678 45.3246C50.9424 43.6111 51.8268 41.5313 52.2576 39.4671C52.3703 38.9288 52.8446 38.5433 53.3945 38.5433H56.5439C56.6624 38.5189 56.9033 38.437 56.9033 38.1838V34.2784C56.8557 34.0433 56.7013 33.9242 56.4441 33.9242H53.2035C52.6356 33.9242 52.1513 33.5143 52.0579 32.954C51.7286 30.9804 50.8977 28.9307 49.6569 27.0256C49.3567 26.5651 49.4206 25.9578 49.8096 25.5693L52.0968 23.2868C52.2773 23.1068 52.1711 22.8635 52.1037 22.748L49.4142 19.9719C49.2458 19.8047 49.0066 19.9057 48.8875 19.9742L46.684 22.1731C46.2892 22.5674 45.6696 22.6249 45.2092 22.3096C43.4922 21.1384 41.4065 20.2553 39.3365 19.825C38.7977 19.7135 38.4115 19.238 38.4115 18.6881V15.4551C38.4115 15.2315 38.2554 15.0945 38.1433 15.0945H34.2315C34.1124 15.1195 33.8715 15.2019 33.8715 15.4551V18.7833C33.8715 19.3506 33.461 19.8355 32.9006 19.9284C30.9218 20.2576 28.8663 21.0862 26.956 22.3247C26.4967 22.6237 25.8917 22.5593 25.5044 22.1726L23.2172 19.8906C23.0337 19.7071 22.7864 19.8151 22.6703 19.8831L19.8878 22.5668C19.7217 22.7323 19.8222 22.9675 19.8907 23.0847L22.0937 25.2837C22.4903 25.6797 22.5477 26.3009 22.2313 26.7626C21.0572 28.4749 20.1729 30.5553 19.7415 32.6195C19.6288 33.1578 19.1544 33.5433 18.6046 33.5433H15.4569C15.3379 33.5689 15.0969 33.6507 15.0969 33.9045V37.8064C15.1219 37.9243 15.2049 38.1635 15.4604 38.1635H18.701C19.2688 38.1635 19.7531 38.574 19.8466 39.1338C20.1758 41.1068 21.0061 43.1571 22.2475 45.0627C22.5477 45.5232 22.4839 46.1306 22.0948 46.519L19.8077 48.8009C19.6271 48.9815 19.7334 49.2248 19.8007 49.3404L22.4903 52.1164C22.6586 52.2842 22.8979 52.1832 23.0169 52.1135L25.2204 49.9146C25.6147 49.5204 26.2348 49.4629 26.6959 49.7782C28.4123 50.9499 30.4974 51.8331 32.5679 52.2633C33.1068 52.3748 33.4929 52.8504 33.4929 53.4002V56.5404H33.4917Z" fill="#3BA4D1"/>
</g>
<defs>
<clipPath id="clip0_95_337">
<rect width="72" height="72" fill="white"/>
</clipPath>
</defs>
</svg>
