<svg width="69" height="69" viewBox="0 0 69 69" fill="none" xmlns="http://www.w3.org/2000/svg">
<g clip-path="url(#clip0_95_383)">
<path d="M54.339 40.6476L68.2482 33.7388C68.7436 33.4924 69.0394 32.9702 68.9952 32.419C68.9515 31.8679 68.5762 31.3993 68.0487 31.2351L45.4966 24.2226C44.7827 24.0009 44.0247 24.3994 43.803 25.1127C43.5809 25.8261 43.9794 26.5846 44.6927 26.8063L64.0221 32.8165L51.4494 39.0615C51.0593 39.2552 50.7866 39.6248 50.7161 40.0549C50.6455 40.4844 50.7866 40.9219 51.0946 41.2304L65.6824 55.8177L55.8166 65.6829L41.2293 51.0951C40.9214 50.7871 40.4844 50.6471 40.0538 50.7166C39.6243 50.7871 39.2547 51.0598 39.061 51.4499L32.816 64.0226L18.7335 18.734L34.34 23.5872C35.0538 23.8088 35.8119 23.4103 36.034 22.697C36.2557 21.9831 35.8572 21.2251 35.1438 21.0029L17.079 15.386C16.5989 15.2364 16.0761 15.3654 15.7208 15.7208C15.3649 16.0766 15.2359 16.5994 15.3855 17.0795L31.2346 68.0487C31.3983 68.5767 31.8674 68.9515 32.4185 68.9957C32.4549 68.9983 32.4907 68.9999 32.527 68.9999C33.0371 68.9999 33.5082 68.7114 33.7383 68.2487L40.6471 54.3395L54.8601 68.5525C55.3886 69.081 56.2451 69.081 56.7737 68.5525L68.5525 56.7737C69.081 56.2457 69.081 55.3892 68.5525 54.8606L54.339 40.6476Z" fill="#3BA4D1"/>
<path d="M6.79824 4.88477C6.26971 4.35677 5.41321 4.35677 4.88468 4.88477C4.35615 5.41331 4.35615 6.2698 4.88468 6.79834L8.32383 10.2375C8.5881 10.5018 8.93448 10.6339 9.28087 10.6339C9.62674 10.6339 9.97313 10.5018 10.2374 10.2375C10.7659 9.70948 10.7659 8.85246 10.2374 8.32445L6.79824 4.88477Z" fill="#3BA4D1"/>
<path d="M24.0747 10.6339C24.4206 10.6339 24.767 10.5018 25.0312 10.2375L28.4704 6.79834C28.9989 6.2698 28.9989 5.41331 28.4704 4.88477C27.9424 4.35677 27.0859 4.35677 26.5574 4.88477L23.1177 8.32445C22.5897 8.85246 22.5897 9.70948 23.1177 10.2375C23.382 10.5018 23.7283 10.6339 24.0747 10.6339Z" fill="#3BA4D1"/>
<path d="M8.32383 23.1176L4.88468 26.5572C4.35615 27.0858 4.35615 27.9423 4.88468 28.4708C5.14895 28.7345 5.49481 28.8672 5.8412 28.8672C6.18759 28.8672 6.53345 28.7345 6.79772 28.4708L10.2374 25.0311C10.7659 24.5031 10.7659 23.6461 10.2374 23.1176C9.70886 22.5896 8.85289 22.5896 8.32383 23.1176Z" fill="#3BA4D1"/>
<path d="M16.6781 7.57014C17.4251 7.57014 18.031 6.96423 18.031 6.21723V1.35304C18.031 0.60604 17.4251 0.00012207 16.6781 0.00012207C15.9311 0.00012207 15.3252 0.60604 15.3252 1.35304V6.21723C15.3252 6.96423 15.9306 7.57014 16.6781 7.57014Z" fill="#3BA4D1"/>
<path d="M7.57002 16.6779C7.57002 15.9309 6.96411 15.325 6.2171 15.325H1.35292C0.605918 15.325 0 15.9309 0 16.6779C0 17.4249 0.605918 18.0308 1.35292 18.0308H6.2171C6.96411 18.0308 7.57002 17.4249 7.57002 16.6779Z" fill="#3BA4D1"/>
<path d="M38.6609 24.4163C38.8804 24.9469 39.4284 25.2844 39.9996 25.2486C40.5729 25.2123 41.0667 24.8022 41.2167 24.2494C41.3651 23.7035 41.1435 23.1029 40.6755 22.7844C40.2239 22.477 39.6158 22.4696 39.1605 22.7739C38.6304 23.1287 38.4172 23.8262 38.6609 24.4163Z" fill="#3BA4D1"/>
</g>
<defs>
<clipPath id="clip0_95_383">
<rect width="69" height="69" fill="white"/>
</clipPath>
</defs>
</svg>
