<svg width="38" height="38" viewBox="0 0 38 38" fill="none" xmlns="http://www.w3.org/2000/svg">
<mask id="mask0_95_110" style="mask-type:luminance" maskUnits="userSpaceOnUse" x="0" y="0" width="38" height="38">
<path d="M0 0H38V38H0V0Z" fill="white"/>
</mask>
<g mask="url(#mask0_95_110)">
<path d="M19 20.4844C15.7262 20.4844 13.0625 17.8207 13.0625 14.5469C13.0625 11.2731 15.7262 8.60938 19 8.60938C22.2738 8.60938 24.9375 11.2731 24.9375 14.5469C24.9375 17.8207 22.2738 20.4844 19 20.4844Z" stroke="black" stroke-width="2" stroke-miterlimit="10" stroke-linecap="round" stroke-linejoin="round"/>
<path d="M7.91504 33.5447C7.91578 33.535 7.91652 33.5254 7.91801 33.5157C8.45609 27.8692 13.212 23.4532 18.9996 23.4532C24.7872 23.4532 29.5423 27.8684 30.082 33.515" stroke="black" stroke-width="2" stroke-miterlimit="10" stroke-linecap="round" stroke-linejoin="round"/>
<path d="M33.3984 6.82812C33.3984 7.23804 33.0661 7.57031 32.6562 7.57031C32.2464 7.57031 31.9141 7.23804 31.9141 6.82812C31.9141 6.41821 32.2464 6.08594 32.6562 6.08594C33.0661 6.08594 33.3984 6.41821 33.3984 6.82812Z" fill="#3BA4D1"/>
<path d="M34.6172 9.53028C36.2931 12.2904 37.2578 15.5314 37.2578 19C37.2578 24.9219 34.4457 30.1811 30.0823 33.515V33.5157C27.0104 35.864 23.1696 37.2578 19 37.2578C14.8311 37.2578 10.9903 35.864 7.91847 33.5157C3.55508 30.1818 0.742188 24.9227 0.742188 19C0.742188 8.90922 8.90773 0.742184 19 0.742184C23.2209 0.742184 27.1052 2.17089 30.196 4.57172" stroke="black" stroke-width="2" stroke-miterlimit="10" stroke-linecap="round" stroke-linejoin="round"/>
</g>
</svg>
