<svg width="171" height="59" viewBox="0 0 171 59" fill="none" xmlns="http://www.w3.org/2000/svg">
<path d="M41.9968 43.5C41.9986 42.6716 42.6716 42 43.5 42V42C44.3284 42 44.9986 42.6716 44.9969 43.5L44.9641 59H41.9641L41.9968 43.5Z" fill="#1F4571"/>
<path d="M0.0329662 43.5C0.0347151 42.6716 0.70771 42 1.53614 42V42C2.36457 42 3.03473 42.6716 3.03298 43.5L3.00026 59H0.000244831L0.0329662 43.5Z" fill="#1F4571"/>
<path d="M167.997 43.5C167.999 42.6716 168.672 42 169.5 42V42C170.328 42 170.999 42.6716 170.997 43.5L170.964 59H167.964L167.997 43.5Z" fill="#1F4571"/>
<path d="M83.9968 43.5C83.9986 42.6716 84.6716 42 85.5 42V42C86.3284 42 86.9986 42.6716 86.9969 43.5L86.9641 59H83.9641L83.9968 43.5Z" fill="#1F4571"/>
<path d="M125.997 43.5C125.999 42.6716 126.672 42 127.5 42V42C128.328 42 128.999 42.6716 128.997 43.5L128.964 59H125.964L125.997 43.5Z" fill="#1F4571"/>
<path d="M62.9968 50.5C62.9986 49.6716 63.6716 49 64.5 49V49C65.3284 49 65.9986 49.6716 65.9969 50.5L65.9789 59H62.9789L62.9968 50.5Z" fill="#1F4571"/>
<path d="M104.997 50.5C104.999 49.6716 105.672 49 106.5 49V49C107.328 49 107.999 49.6716 107.997 50.5L107.979 59H104.979L104.997 50.5Z" fill="#1F4571"/>
<path d="M20.9968 50.5C20.9986 49.6716 21.6716 49 22.5 49V49C23.3284 49 23.9986 49.6716 23.9969 50.5L23.9789 59H20.9789L20.9968 50.5Z" fill="#1F4571"/>
<path d="M146.997 50.5C146.999 49.6716 147.672 49 148.5 49V49C149.328 49 149.999 49.6716 149.997 50.5L149.979 59H146.979L146.997 50.5Z" fill="#1F4571"/>
<path opacity="0.1" d="M15.5 12.5C15.5 16.453 12.5055 19.5 9 19.5C5.49452 19.5 2.5 16.453 2.5 12.5C2.5 8.54704 5.49452 5.5 9 5.5C12.5055 5.5 15.5 8.54704 15.5 12.5Z" stroke="#1F4571" stroke-width="3"/>
<circle opacity="0.1" cx="80.5" cy="14.5" r="9" stroke="#1F4571" stroke-width="5"/>
<circle opacity="0.1" cx="38" cy="37" r="10.5" stroke="#1F4571" stroke-width="5"/>
<circle opacity="0.1" cx="118" cy="35" r="8.5" stroke="#1F4571" stroke-width="5"/>
<circle opacity="0.1" cx="159" cy="11" r="8.5" stroke="#1F4571" stroke-width="5"/>
</svg>
