<svg width="336" height="656" viewBox="0 0 336 656" fill="none" xmlns="http://www.w3.org/2000/svg">
<g opacity="0.15" clip-path="url(#clip0_95_398)">
<path d="M34.0765 65.0351L154.51 108.392C171.137 114.378 179.765 132.712 173.779 149.339C169.063 162.438 156.667 170.58 143.492 170.503L16.4172 523.482C2.44986 562.28 -40.3374 582.414 -79.1339 568.447C-117.93 554.48 -138.066 511.693 -124.098 472.896L2.97616 119.917C-7.22418 111.578 -11.5868 97.4033 -6.87105 84.3043C-0.885107 67.6769 17.4492 59.0492 34.0765 65.0351ZM-104.016 480.126C-113.977 507.794 -99.5722 538.405 -71.9045 548.366C-44.2368 558.326 -13.626 543.921 -3.66509 516.253L28.8525 425.928L-1.25585 415.088C-6.79861 413.093 -9.6625 406.981 -7.66741 401.439C-5.67198 395.896 0.426651 393.026 5.96847 395.021L36.0768 405.86L50.5305 365.712L20.4222 354.873C14.8794 352.877 12.0155 346.765 14.0113 341.221C16.0064 335.679 22.105 332.809 27.6468 334.805L57.7552 345.644L72.2092 305.494L-28.1419 269.367L-104.016 480.126ZM-20.9175 249.3L79.4336 285.427L122.79 164.994L22.4392 128.867L-20.9175 249.3ZM19.6278 105.17L140.061 148.526C145.589 150.516 151.722 147.643 153.712 142.115C155.707 136.572 152.813 130.449 147.286 128.459L26.8522 85.1023C21.3245 83.1123 15.1916 85.9858 13.1962 91.5286C11.2062 97.0563 14.1001 103.18 19.6278 105.17Z" fill="#3BA4D1"/>
</g>
<defs>
<clipPath id="clip0_95_398">
<rect width="512" height="512" fill="white" transform="matrix(-0.940886 -0.338725 -0.338725 0.940886 335.16 173.427)"/>
</clipPath>
</defs>
</svg>
