<svg width="278" height="522" viewBox="0 0 278 522" fill="none" xmlns="http://www.w3.org/2000/svg">
<g opacity="0.15" clip-path="url(#clip0_95_394)">
<path d="M445.571 368.183L299.682 184.289C291.591 174.086 285.653 162.572 282.038 150.062L266.1 94.9139C264.384 88.9755 265.083 82.7237 268.069 77.31C271.71 70.7102 272.564 63.0851 270.471 55.8434L268.213 48.0305C266.952 43.6638 262.387 41.1485 258.023 42.4096L147.644 74.3094C143.277 75.5713 140.761 80.1331 142.023 84.4997L144.281 92.3127C146.374 99.5544 151.161 105.549 157.761 109.189C163.175 112.175 167.101 117.09 168.819 123.032L184.755 178.177C188.371 190.687 189.494 203.592 188.09 216.539L181.138 280.665C181.135 280.689 181.132 280.713 181.129 280.737L162.791 449.907C161.323 463.458 166.677 476.784 177.113 485.549C187.551 494.318 201.597 497.292 214.691 493.508L424.931 432.748C438.024 428.964 448.322 418.954 452.473 405.97C456.621 392.986 454.041 378.862 445.571 368.183ZM204.452 218.312C206.089 203.227 204.78 188.186 200.567 173.607L184.629 118.459C181.693 108.299 174.975 99.8879 165.713 94.7786C162.99 93.2768 161.006 90.8119 160.119 87.8359L254.687 60.5056C255.524 63.4958 255.16 66.6359 253.656 69.3626C248.55 78.6246 247.352 89.3204 250.289 99.4834L266.226 154.628C270.439 169.207 277.359 182.626 286.787 194.514L319.321 235.523L198.81 270.351L204.452 218.312ZM436.794 400.958C434.281 408.821 428.292 414.645 420.361 416.937L210.121 477.696C202.194 479.987 194.021 478.257 187.699 472.947C182.931 468.941 179.993 463.547 179.215 457.615L192.241 453.85C196.605 452.589 199.123 448.023 197.862 443.66C196.6 439.293 192.035 436.778 187.672 438.039L180.408 440.138L183.09 415.378L196.425 411.525C200.791 410.263 203.307 405.698 202.046 401.334C200.784 396.968 196.222 394.451 191.855 395.713L185.009 397.692L187.691 372.932L201.402 368.97C205.769 367.708 208.284 363.143 207.023 358.779C205.761 354.413 201.199 351.897 196.833 353.159L189.609 355.246L192.294 330.485L206.376 326.416C210.743 325.154 213.258 320.589 211.997 316.225C210.735 311.859 206.173 309.343 201.807 310.605L194.21 312.8L196.895 288.04L330.376 249.463L432.677 378.414C437.805 384.879 439.307 393.098 436.794 400.958Z" fill="#3BA4D1"/>
</g>
<defs>
<clipPath id="clip0_95_394">
<rect width="421.332" height="421.332" fill="white" transform="translate(0 116.979) rotate(-16.1194)"/>
</clipPath>
</defs>
</svg>
