<svg width="72" height="72" viewBox="0 0 72 72" fill="none" xmlns="http://www.w3.org/2000/svg">
<path d="M53.0735 17.6226L55.9192 12.6726C56.0492 12.4463 56.084 12.1776 56.016 11.9256C55.948 11.6736 55.7826 11.4589 55.5563 11.3288L51.5328 9.01748C51.3064 8.88747 51.0376 8.85272 50.7856 8.92087C50.5336 8.98901 50.319 9.15447 50.189 9.38085L47.3478 14.3258C44.786 13.2208 42.0758 12.4979 39.304 12.1804V9.1716H41.3009C41.562 9.1716 41.8124 9.06789 41.997 8.88329C42.1816 8.69868 42.2853 8.4483 42.2853 8.18723V3.54773C42.2854 3.41844 42.2599 3.2904 42.2105 3.17094C42.161 3.05147 42.0885 2.94293 41.9971 2.85151C41.9057 2.76008 41.7971 2.68758 41.6777 2.63814C41.5582 2.58869 41.4302 2.56328 41.3009 2.56335H30.6989C30.5696 2.56328 30.4416 2.58869 30.3221 2.63814C30.2026 2.68758 30.0941 2.76008 30.0027 2.85151C29.9113 2.94293 29.8387 3.05147 29.7893 3.17094C29.7399 3.2904 29.7144 3.41844 29.7145 3.54773V8.18723C29.7145 8.4483 29.8182 8.69868 30.0028 8.88329C30.1874 9.06789 30.4378 9.1716 30.6989 9.1716H32.6958V12.1776C29.924 12.4951 27.2138 13.218 24.652 14.323L21.8108 9.37804C21.7465 9.26589 21.6607 9.16752 21.5583 9.08856C21.456 9.00959 21.339 8.95158 21.2142 8.91783C21.0894 8.88408 20.9592 8.87526 20.831 8.89188C20.7028 8.9085 20.5791 8.95022 20.467 9.01467L16.4435 11.326C16.2172 11.4561 16.0518 11.6708 15.9838 11.9228C15.9158 12.1748 15.9506 12.4435 16.0806 12.6698L18.9263 17.6226C14.0634 21.2164 10.4585 26.2529 8.62497 32.015C6.79146 37.777 6.82286 43.9707 8.71472 49.7139C10.6066 55.457 14.2624 60.4568 19.1615 64.001C24.0606 67.5453 29.9532 69.4533 35.9999 69.4533C42.0466 69.4533 47.9392 67.5453 52.8383 64.001C57.7374 60.4568 61.3932 55.457 63.2851 49.7139C65.1769 43.9707 65.2083 37.777 63.3748 32.015C61.5413 26.2529 57.9364 21.2164 53.0735 17.6226ZM51.4056 11.2101L53.7215 12.5438L51.4445 16.5072C50.6945 16.0279 49.9233 15.5832 49.1309 15.1729L51.4056 11.2101ZM31.6833 4.5321H40.3165V7.20285H31.6833V4.5321ZM34.6645 9.1716H37.3353V12.0162C36.8926 11.9954 36.4499 11.9813 35.9999 11.9813C35.5499 11.9813 35.1072 11.9948 34.6645 12.0156V9.1716ZM18.2783 12.5438L20.5941 11.2135L22.8689 15.1729C22.0758 15.5824 21.3046 16.0272 20.5553 16.5072L18.2783 12.5438ZM35.9999 67.468C30.7075 67.468 25.534 65.8986 21.1335 62.9583C16.7331 60.018 13.3033 55.8388 11.278 50.9493C9.25276 46.0597 8.72288 40.6794 9.75541 35.4887C10.7879 30.298 13.3365 25.5301 17.0788 21.7878C20.8212 18.0456 25.5892 15.4971 30.7799 14.4647C35.9706 13.4323 41.3509 13.9623 46.2404 15.9876C51.1299 18.013 55.309 21.4429 58.2492 25.8434C61.1894 30.2439 62.7587 35.4175 62.7586 40.7099C62.7504 47.8041 59.9285 54.6055 54.9121 59.6219C49.8956 64.6382 43.0942 67.4599 35.9999 67.468Z" fill="#3BA4D1"/>
<path d="M55.3541 51.7843C57.3009 48.3965 58.3203 44.5553 58.3096 40.648C58.2989 36.7406 57.2586 32.9051 55.2933 29.5279C55.2803 29.4942 55.2653 29.4613 55.2483 29.4295C55.2309 29.4032 55.2121 29.3779 55.1921 29.3535C53.2553 26.0953 50.5258 23.3801 47.2575 21.4605C47.2306 21.4384 47.2024 21.4179 47.1731 21.3992C47.1412 21.3826 47.1083 21.368 47.0746 21.3553C43.687 19.4085 39.8461 18.3889 35.9389 18.3995C32.0317 18.4101 28.1964 19.4503 24.8193 21.4155C24.7851 21.429 24.7517 21.4444 24.7192 21.4616C24.6933 21.4791 24.6683 21.4979 24.6444 21.5179C21.3857 23.4546 18.6699 26.1841 16.7497 29.4525C16.7031 29.5057 16.6675 29.5677 16.6451 29.6348C14.6983 33.0225 13.6789 36.8636 13.6895 40.7709C13.7002 44.6781 14.7406 48.5136 16.7058 51.8906C16.719 51.9245 16.734 51.9575 16.7508 51.9896C16.7632 52.011 16.7818 52.0268 16.7953 52.0459C18.7323 55.3119 21.4654 58.0336 24.7395 59.9569C24.767 59.9793 24.7957 60.0001 24.8255 60.0193C24.8503 60.0334 24.8773 60.039 24.9026 60.0514C28.2964 62.0061 32.1463 63.0297 36.0627 63.0185C39.9791 63.0073 43.8231 61.9619 47.2057 59.9878C47.2299 59.976 47.2558 59.971 47.2794 59.9569C47.303 59.9428 47.3289 59.9203 47.3542 59.9006C50.6202 57.9597 53.3409 55.2225 55.2618 51.9446C55.277 51.9227 55.2961 51.9064 55.3096 51.8828C55.3266 51.851 55.3415 51.8181 55.3541 51.7843ZM47.1163 57.7311L45.8512 55.575C45.7192 55.3498 45.5031 55.1862 45.2504 55.1202C44.9978 55.0543 44.7293 55.0914 44.504 55.2235C44.2787 55.3555 44.1152 55.5716 44.0492 55.8242C43.9833 56.0769 44.0204 56.3454 44.1525 56.5706L45.4192 58.7318C42.8082 60.1042 39.9282 60.888 36.9817 61.0279V58.5163C36.9817 58.2553 36.878 58.0049 36.6934 57.8203C36.5088 57.6357 36.2584 57.532 35.9973 57.532C35.7363 57.532 35.4859 57.6357 35.3013 57.8203C35.1167 58.0049 35.013 58.2553 35.013 58.5163V61.0279C32.1059 60.8884 29.2633 60.122 26.6801 58.7813L27.9345 56.614C28.0611 56.3883 28.0938 56.1217 28.0254 55.8721C27.957 55.6225 27.7931 55.4099 27.5691 55.2802C27.3451 55.1506 27.079 55.1144 26.8285 55.1795C26.578 55.2445 26.3632 55.4056 26.2306 55.6279L24.978 57.793C22.5847 56.2429 20.5411 54.2106 18.9778 51.826L21.1361 50.5615C21.3601 50.4289 21.5225 50.213 21.5878 49.961C21.653 49.709 21.6158 49.4414 21.4842 49.2167C21.3526 48.9921 21.1374 48.8288 20.8857 48.7624C20.634 48.6961 20.3662 48.7321 20.141 48.8627L17.9799 50.1295C16.6073 47.5185 15.8233 44.6384 15.6832 41.692H18.1948C18.4558 41.692 18.7062 41.5882 18.8908 41.4036C19.0754 41.219 19.1791 40.9687 19.1791 40.7076C19.1791 40.4465 19.0754 40.1961 18.8908 40.0115C18.7062 39.8269 18.4558 39.7232 18.1948 39.7232H15.6832C15.822 36.8155 16.5878 33.9722 17.9281 31.3881L20.096 32.6419C20.3216 32.766 20.5867 32.7967 20.8347 32.7276C21.0826 32.6586 21.2937 32.4951 21.4226 32.2723C21.5514 32.0494 21.5879 31.785 21.5242 31.5356C21.4604 31.2862 21.3015 31.0717 21.0815 30.9381L18.917 29.6854C20.4669 27.293 22.4988 25.2502 24.8829 23.6875L26.148 25.8458C26.2805 26.0698 26.4964 26.2322 26.7484 26.2974C27.0005 26.3627 27.268 26.3254 27.4927 26.1939C27.7173 26.0623 27.8806 25.8471 27.947 25.5954C28.0133 25.3437 27.9773 25.0759 27.8467 24.8507L26.58 22.6896C29.1909 21.3168 32.071 20.5331 35.0175 20.3935V22.9045C35.0175 23.1655 35.1212 23.4159 35.3058 23.6005C35.4904 23.7851 35.7408 23.8888 36.0018 23.8888C36.2629 23.8888 36.5133 23.7851 36.6979 23.6005C36.8825 23.4159 36.9862 23.1655 36.9862 22.9045V20.3935C39.8939 20.5321 42.7372 21.2977 45.3213 22.6378L44.0647 24.8063C43.9979 24.9182 43.954 25.0423 43.9356 25.1714C43.9172 25.3005 43.9245 25.4319 43.9573 25.5581C43.9901 25.6842 44.0476 25.8027 44.1265 25.9064C44.2054 26.0102 44.3042 26.0973 44.417 26.1626C44.5298 26.2279 44.6545 26.2701 44.7838 26.2868C44.9131 26.3036 45.0444 26.2944 45.1702 26.26C45.2959 26.2255 45.4135 26.1665 45.5162 26.0862C45.619 26.0059 45.7047 25.906 45.7685 25.7923L47.0212 23.625C49.4146 25.1754 51.4582 27.2081 53.0214 29.5931L50.8631 30.8576C50.7509 30.9227 50.6527 31.0092 50.5741 31.1123C50.4955 31.2154 50.438 31.333 50.405 31.4583C50.372 31.5837 50.364 31.7143 50.3816 31.8428C50.3992 31.9712 50.442 32.0949 50.5075 32.2068C50.573 32.3186 50.66 32.4164 50.7634 32.4946C50.8668 32.5727 50.9847 32.6297 51.1102 32.6622C51.2357 32.6947 51.3663 32.702 51.4947 32.6839C51.6231 32.6657 51.7466 32.6224 51.8581 32.5564L54.0198 31.2896C55.392 33.9008 56.1757 36.7807 56.316 39.7271H53.8044C53.5433 39.7271 53.2929 39.8309 53.1083 40.0155C52.9237 40.2001 52.82 40.4504 52.82 40.7115C52.82 40.9726 52.9237 41.223 53.1083 41.4076C53.2929 41.5922 53.5433 41.6959 53.8044 41.6959H56.316C56.1768 44.6028 55.411 47.4454 54.071 50.0288L51.9037 48.7744C51.6777 48.6436 51.409 48.608 51.1567 48.6754C50.9044 48.7427 50.6892 48.9075 50.5585 49.1336C50.4277 49.3596 50.3921 49.6283 50.4595 49.8805C50.5268 50.1328 50.6916 50.348 50.9176 50.4788L53.0821 51.7315C51.5324 54.1245 49.5005 56.1679 47.1163 57.7311Z" fill="#3BA4D1"/>
<path d="M50.8466 40.7099C50.8466 40.4488 50.7428 40.1985 50.5582 40.0139C50.3736 39.8292 50.1232 39.7255 49.8622 39.7255H40.3841C40.1961 38.8956 39.7771 38.1359 39.1755 37.5342C38.5738 36.9324 37.8142 36.5133 36.9843 36.3252V26.8477C36.9843 26.5866 36.8806 26.3362 36.696 26.1516C36.5114 25.967 36.261 25.8633 35.9999 25.8633C35.7389 25.8633 35.4885 25.967 35.3039 26.1516C35.1193 26.3362 35.0156 26.5866 35.0156 26.8477V36.3252C34.2302 36.5011 33.5064 36.8846 32.9199 37.4357C32.3334 37.9868 31.9056 38.6853 31.6812 39.4582C31.4568 40.2311 31.444 41.0501 31.6442 41.8296C31.8444 42.6091 32.2502 43.3206 32.8193 43.8897C33.3884 44.4589 34.0998 44.8648 34.8793 45.065C35.6588 45.2653 36.4778 45.2526 37.2507 45.0283C38.0236 44.804 38.7222 44.3763 39.2733 43.7898C39.8245 43.2033 40.2081 42.4796 40.3841 41.6943H49.8622C50.1232 41.6941 50.3735 41.5904 50.5581 41.4058C50.7426 41.2212 50.8464 40.9709 50.8466 40.7099ZM35.9999 43.2372C35.4999 43.2373 35.0111 43.0892 34.5953 42.8114C34.1795 42.5337 33.8554 42.1389 33.664 41.677C33.4726 41.215 33.4225 40.7067 33.52 40.2163C33.6176 39.7259 33.8583 39.2754 34.2119 38.9219C34.5655 38.5683 35.0159 38.3275 35.5063 38.23C35.9968 38.1325 36.5051 38.1826 36.967 38.374C37.4289 38.5654 37.8237 38.8895 38.1014 39.3053C38.3792 39.7211 38.5273 40.2099 38.5272 40.7099C38.5262 41.3799 38.2596 42.0221 37.7859 42.4958C37.3121 42.9696 36.6699 43.2362 35.9999 43.2372Z" fill="#3BA4D1"/>
</svg>
